<?xml version="1.0" encoding="UTF-8"?>
<svg id="Layer_1" data-name="Layer 1" xmlns="http://www.w3.org/2000/svg" version="1.1" xmlns:xlink="http://www.w3.org/1999/xlink" viewBox="0 0 115 168">
  <defs>
    <style>
      .cls-1 {
        fill: #fff;
        filter: url(#drop-shadow-1);
        stroke-width: 0px;
      }
    </style>
    <filter id="drop-shadow-1" filterUnits="userSpaceOnUse">
      <feOffset dx="0" dy="0"/>
      <feGaussianBlur result="blur" stdDeviation="3"/>
      <feFlood flood-color="#000" flood-opacity=".4"/>
      <feComposite in2="blur" operator="in"/>
      <feComposite in="SourceGraphic"/>
    </filter>
  </defs>
  <path class="cls-1" d="M62.6,84l-44,44c-3,3-4.5,6.8-4.5,11.1s1.5,8.1,4.5,11.2c3,3.1,6.8,4.8,11.2,4.8,4.9-.1,8.3-1.5,11.4-4.6l55.1-55.1c1.5-1.5,2.7-3.3,3.5-5.3.8-1.9,1.2-4,1.2-6.1s-.4-4.1-1.2-6.1c-.8-1.9-2-3.7-3.5-5.2L41.1,17.5c-3.1-3.1-6.8-4.6-11.1-4.6h-.3c-4.3,0-8.2,1.7-11.2,4.8-3,3.1-4.5,6.9-4.5,11.2s1.6,8.1,4.5,11.1l44,44Z"/>
</svg>